<svg width="114" height="45" viewBox="0 0 114 45" fill="none" xmlns="http://www.w3.org/2000/svg">
<path d="M32.4372 22.5169C32.4372 24.3421 32.1751 26.0172 31.6508 27.5421C31.1704 28.9926 30.4067 30.3331 29.404 31.486C28.4271 32.5908 27.2236 33.4723 25.8756 34.0702C24.5025 34.6888 22.9631 34.9981 21.2574 34.9981C19.495 34.9981 17.9169 34.6888 16.5232 34.0702C15.1682 33.4801 13.9605 32.5976 12.9864 31.486C11.9923 30.3317 11.2381 28.991 10.7677 27.5421C10.2559 26.0178 10 24.3427 10 22.5169C10 20.6798 10.2649 18.9944 10.7948 17.4607C11.3247 15.927 12.0736 14.6092 13.0416 13.5075C14.0179 12.4015 15.2232 11.5212 16.5738 10.9279C17.9525 10.3093 19.5006 10 21.2181 10C22.9656 10 24.5347 10.3093 25.9252 10.9279C27.2767 11.52 28.4813 12.4023 29.4536 13.5122C30.4179 14.617 31.1562 15.9348 31.6686 17.4654C32.181 18.9959 32.4372 20.6798 32.4372 22.5169ZM21.2827 22.5169C21.2827 20.8961 29.3076 19.4672 28.8826 18.2303C28.4575 16.9934 27.8724 15.9616 27.1263 15.133C26.3973 14.3169 25.4954 13.674 24.4863 13.2509C23.4509 12.8204 22.3394 12.6029 21.2181 12.6114C20.0969 12.6029 18.9854 12.8204 17.95 13.2509C16.9408 13.6739 16.0389 14.3169 15.31 15.133C14.561 15.9613 13.9753 16.9938 13.5528 18.2303C13.1277 19.4672 21.2818 20.8961 21.2818 22.5169C21.2818 24.1376 13.1324 25.5637 13.5631 26.7987C13.9937 28.0337 14.5826 29.059 15.3287 29.8886C16.0564 30.7037 16.9589 31.3439 17.9687 31.7612C19.0114 32.1872 20.1284 32.4014 21.2546 32.3914C22.3694 32.4016 23.4748 32.1873 24.505 31.7612C25.5074 31.3402 26.403 30.7004 27.1263 29.8886C27.8752 29.0602 28.4607 28.0303 28.8826 26.7987C29.3076 25.5637 21.2827 24.1386 21.2827 22.5169Z" fill="#F55757"/>
<path d="M36.372 24.1207V34.0992H33.4371V10.0008H39.6786C40.5762 9.99363 41.4736 10.0327 42.3673 10.1179C43.0508 10.186 43.7276 10.3094 44.3913 10.4868C46.0689 10.9437 47.3517 11.7212 48.2399 12.8192C49.128 13.9172 49.5717 15.2905 49.5711 16.939C49.5858 17.8316 49.4268 18.7186 49.103 19.5505C48.8052 20.2983 48.3594 20.9783 47.7924 21.5495C47.2055 22.1293 46.5193 22.599 45.7665 22.9362C44.9303 23.3115 44.0493 23.5777 43.1452 23.7284V23.8005L50.276 34.1001H47.3383L39.9192 24.1207H36.372ZM36.372 12.6478V21.4728H39.2742C40.1747 21.4728 40.943 21.4415 41.579 21.3791C42.1587 21.33 42.7319 21.2214 43.2894 21.0552C44.3098 20.743 45.0962 20.2437 45.6485 19.557C46.2009 18.8704 46.477 17.9759 46.477 16.8735C46.4652 15.841 46.2012 15.0096 45.685 14.3791C45.1689 13.7487 44.453 13.2977 43.5375 13.0261C43.0319 12.8802 42.5133 12.7836 41.989 12.7377C41.3886 12.6753 40.6263 12.6441 39.702 12.6441L36.372 12.6478Z" fill="#F55757"/>
<path d="M54.212 31.4504H68.2648V34.0983H51.2761V10H56.9081L58.8919 12.6479H54.211V20.4288H63.0354L64.6016 23.0712H54.2101L54.212 31.4504Z" fill="#F55757"/>
<path d="M79.7995 23.4354C81.0565 25.5577 82.2984 27.7425 83.5255 29.9897H83.6191C83.4861 27.6483 83.4197 25.2587 83.4197 22.8212V10H85.9286V34.0983H83.4328L75.3817 20.6629C73.9918 18.3215 72.7498 16.1367 71.6557 14.1086H71.5621C71.6944 16.3059 71.7609 18.8692 71.7615 21.7987V34.0983H69.2648V10H71.7484L79.7995 23.4354Z" fill="#F55757"/>
<path d="M97.4596 23.4663C98.7165 25.5961 99.9585 27.7862 101.186 30.0365H101.279C101.146 27.6901 101.08 25.2953 101.08 22.8521V10H103.592V34.1526H101.094L93.0427 20.6863C91.6528 18.3399 90.4108 16.1498 89.3168 14.1161H89.2231C89.3555 16.3184 89.4219 18.8876 89.4225 21.824V34.1526H86.9286V10H89.4123L97.4596 23.4663Z" fill="#F55757"/>
</svg>
